<?xml version="1.0" standalone="no"?><!DOCTYPE svg PUBLIC "-//W3C//DTD SVG 1.1//EN" "http://www.w3.org/Graphics/SVG/1.1/DTD/svg11.dtd"><svg t="1577508751653" class="icon" viewBox="0 0 1024 1024" version="1.1" xmlns="http://www.w3.org/2000/svg" p-id="5688" xmlns:xlink="http://www.w3.org/1999/xlink" width="200" height="200"><defs><style type="text/css"></style></defs><path d="M380.1 475.2c0 73.4 59.5 133 133 133 73.4 0 133-59.5 133-133 0-73.4-59.5-133-133-133-73.4 0-133 59.6-133 133z m0 0" fill="#2F74ED" p-id="5689"></path><path d="M513.1 847.6c-33 0-63.9-12.8-87.2-36.1L298.4 684c-29-29-51.4-62.7-66.6-100.4-14.7-36.4-22.2-74.8-22.2-114.2 0-39.4 7.4-77.8 22.2-114.2 15.3-37.7 37.7-71.4 66.6-100.4 29-29 62.7-51.4 100.4-66.6C435.2 173.5 473.6 166 513 166c39.4 0 77.8 7.4 114.2 22.2 37.7 15.3 71.4 37.7 100.4 66.6 29 29 51.4 62.7 66.6 100.4 14.7 36.4 22.2 74.8 22.2 114.2 0 39.4-7.4 77.8-22.2 114.2-15.3 37.7-37.7 71.4-66.6 100.4L600.3 811.4c-23.3 23.4-54.3 36.2-87.2 36.2z m0-609.7c-61.8 0-120 24.1-163.7 67.8-43.8 43.8-67.8 101.8-67.8 163.7 0 61.8 24.1 120 67.8 163.7l127.4 127.4c9.7 9.7 22.6 15 36.2 15 13.7 0 26.6-5.4 36.2-15l127.4-127.4c43.8-43.8 67.8-101.8 67.8-163.7 0-61.8-24.1-120-67.8-163.7-43.5-43.7-101.7-67.8-163.5-67.8z m0 0" fill="#333A3D" p-id="5690"></path></svg>